#!OML:ASF H:\Terrain\Patient Classification 1\Takeo\Monday\TakeoMonday.ASF
:FULLY-SPECIFIED
:DEGREES
232
root 9.7736 17.4714 -0.143906 -6.61986 -26.5393 1.01624
lowerback 6.09842 3.11721 -3.08281
upperback 2.23583 3.90352 -2.67473
thorax -1.12607 1.93822 -1.29893
lowerneck -11.1181 2.39386 -2.12534
upperneck -9.20141 3.47018 3.00917
head -1.13022 1.7653 1.37299
rclavicle 4.38072e-014 -1.27222e-014
rhumerus -10.4865 26.879 -72.9625
rradius 115.45
rwrist -12.5338
rhand -26.4788 28.4513
rfingers 7.12502
rthumb 0.0833026 -1.5284
lclavicle 4.38072e-014 -1.27222e-014
lhumerus -38.4151 -13.5073 85.661
lradius 112.67
lwrist 23.6796
lhand -29.3335 5.24575
lfingers 7.12502
lthumb -2.67378 35.2087
rfemur 5.55522 -6.30137 18.6847
rtibia 24.9427
rfoot -21.269 -18.4607
rtoes -8.4217
lfemur -11.4319 9.06716 -18.8728
ltibia 33.9641
lfoot -14.8819 17.4358
ltoes -0.210421
233
root 9.77896 17.4665 -0.159066 -6.9476 -27.3143 1.13544
lowerback 6.29144 2.9871 -2.81751
upperback 2.15164 3.73683 -2.52943
thorax -1.31311 1.85719 -1.29882
lowerneck -11.943 2.82781 0.639408
upperneck -7.8317 3.60302 -0.294632
head -0.463089 1.75634 -0.0860716
rclavicle -3.06128e-014 -7.15625e-015
rhumerus -12.5079 26.7596 -74.0321
rradius 116.104
rwrist -12.5177
rhand -26.5755 28.7745
rfingers 7.12502
rthumb -0.0100626 -1.2052
lclavicle -3.06128e-014 -7.15625e-015
lhumerus -38.4882 -13.6196 85.7221
lradius 112.657
lwrist 23.7724
lhand -29.7761 5.58206
lfingers 7.12502
lthumb -3.1012 35.5393
rfemur 5.55809 -6.00723 18.5426
rtibia 25.2596
rfoot -21.2143 -18.1478
rtoes -8.05122
lfemur -11.1696 9.46934 -18.7974
ltibia 34.0324
lfoot -15.0559 17.6405
ltoes 0.350605
234
root 9.77908 17.4695 -0.175362 -7.19001 -28.1812 1.42538
lowerback 6.20592 2.85618 -2.83054
upperback 2.09929 3.5684 -2.33727
thorax -1.33293 1.77336 -1.07858
lowerneck -11.7765 3.17099 0.134204
upperneck -7.49662 4.13623 0.374606
head -0.407963 2.03868 0.214939
rclavicle 5.59082e-015 6.36111e-015
rhumerus -14.2794 26.7055 -74.861
rradius 116.711
rwrist -12.623
rhand -25.9524 28.1698
rfingers 7.12502
rthumb 0.591715 -1.80914
lclavicle 5.59082e-015 6.36111e-015
lhumerus -38.4487 -13.5884 85.7991
lradius 112.673
lwrist 23.7904
lhand -30.3089 6.06956
lfingers 7.12502
lthumb -3.61579 36.0186
rfemur 5.36598 -5.53549 18.318
rtibia 25.5171
rfoot -21.224 -17.8774
rtoes -7.7477
lfemur -11.1642 9.90059 -18.8861
ltibia 34.2053
lfoot -15.1832 17.9743
ltoes 0.871617
235
root 9.78102 17.4645 -0.189162 -7.33644 -28.9781 1.51905
lowerback 5.96135 2.70147 -2.56529
upperback 2.16891 3.39714 -2.09258
thorax -1.12475 1.68706 -0.946796
lowerneck -12.7723 3.56446 1.86892
upperneck -6.10718 4.38902 -1.89902
head 0.2869 2.10527 -0.723466
rclavicle -1.38528e-014 -3.18055e-015
rhumerus -15.7205 26.6456 -75.5107
rradius 117.212
rwrist -12.6003
rhand -25.8461 27.9693
rfingers 7.12502
rthumb 0.694358 -2.00932
lclavicle -1.38528e-014 -3.18055e-015
lhumerus -38.172 -13.414 85.9835
lradius 112.701
lwrist 24.0627
lhand -30.3146 5.68867
lfingers 7.12502
lthumb -3.62127 35.6376
rfemur 5.17423 -5.04908 18.2983
rtibia 25.749
rfoot -21.1981 -17.8165
rtoes -8.60288
lfemur -11.0866 10.216 -18.8185
ltibia 34.428
lfoot -15.5309 18.2427
ltoes 2.30518
236
root 9.78703 17.4497 -0.200816 -7.59635 -29.6442 1.48559
lowerback 5.94527 2.53794 -2.08848
upperback 2.25228 3.21553 -1.80337
thorax -1.02049 1.59692 -0.899152
lowerneck -10.8947 3.77841 -0.677511
upperneck -7.84418 5.0437 0.794082
head -0.686904 2.50922 0.476846
rclavicle -3.68373e-014 1.19271e-014
rhumerus -17.2663 26.4938 -76.0166
rradius 117.764
rwrist -12.5108
rhand -26.1324 28.6036
rfingers 7.12502
rthumb 0.417866 -1.37577
lclavicle -3.68373e-014 1.19271e-014
lhumerus -37.9944 -13.2376 86.3381
lradius 112.792
lwrist 24.5007
lhand -29.9987 5.18289
lfingers 7.12502
lthumb -3.31616 35.1368
rfemur 5.19071 -4.68964 18.3458
rtibia 26.0648
rfoot -21.3235 -17.6117
rtoes -9.53248
lfemur -10.7543 10.4755 -18.6585
ltibia 34.6395
lfoot -15.8039 18.4471
ltoes 4.07225
237
root 9.78745 17.4391 -0.212071 -7.97202 -30.3837 1.45046
lowerback 6.2053 2.43221 -1.70514
upperback 2.22935 3.09448 -1.46695
thorax -1.18727 1.53782 -0.772163
lowerneck -12.3554 4.07311 2.76838
upperneck -5.70195 4.94447 -3.71949
head 0.445419 2.34249 -1.4286
rclavicle -7.43455e-014 1.39149e-014
rhumerus -19.1833 26.3098 -76.4354
rradius 118.324
rwrist -12.2088
rhand -26.2638 29.1521
rfingers 7.12502
rthumb 0.29096 -0.827425
lclavicle -7.43455e-014 1.39149e-014
lhumerus -38.0739 -13.1031 86.7642
lradius 112.942
lwrist 24.2695
lhand -29.7478 5.47518
lfingers 7.12502
lthumb -3.0739 35.4328
rfemur 5.30043 -4.24471 18.4311
rtibia 26.4839
rfoot -21.5424 -17.3911
rtoes -9.90418
lfemur -10.3086 10.8916 -18.4498
ltibia 34.845
lfoot -15.7189 18.8109
ltoes 4.90493
238
root 9.78503 17.4256 -0.224214 -8.27518 -31.0809 1.72663
lowerback 6.25258 2.35359 -1.61068
upperback 2.17156 2.99673 -1.29113
thorax -1.27771 1.48949 -0.641186
lowerneck -10.9694 4.29091 0.486003
upperneck -6.55805 5.54747 -1.15881
head -0.193047 2.72554 -0.267191
rclavicle 1.03783e-014 1.11319e-014
rhumerus -21.082 26.011 -76.9716
rradius 118.752
rwrist -11.8307
rhand -26.4455 29.4232
rfingers 7.12502
rthumb 0.115434 -0.55647
lclavicle 1.03783e-014 1.11319e-014
lhumerus -37.9613 -13.0425 86.9627
lradius 112.963
lwrist 23.7023
lhand -29.5673 5.45104
lfingers 7.12502
lthumb -2.89962 35.4111
rfemur 5.12217 -3.75365 18.262
rtibia 26.9584
rfoot -21.6251 -17.1291
rtoes -9.6754
lfemur -10.1252 11.432 -18.5445
ltibia 35.0271
lfoot -15.501 19.0491
ltoes 4.99694
239
root 9.78913 17.413 -0.233047 -8.67563 -31.6217 2.43246
lowerback 6.07988 2.26815 -1.72618
upperback 2.1867 2.88094 -1.30711
thorax -1.17084 1.43104 -0.576728
lowerneck -10.3123 4.5186 -0.534995
upperneck -7.01307 5.98421 0.00343705
head -0.501908 2.97285 0.233748
rclavicle 3.92522e-015 -1.59028e-014
rhumerus -22.7863 25.5166 -77.6581
rradius 119.131
rwrist -11.4503
rhand -26.869 29.6857
rfingers 7.12502
rthumb -0.293533 -0.29387
lclavicle 3.92522e-015 -1.59028e-014
lhumerus -37.6192 -13.1131 87.1225
lradius 112.966
lwrist 23.4798
lhand -29.5627 4.95412
lfingers 7.12502
lthumb -2.89514 34.9142
rfemur 4.82573 -3.50732 17.5764
rtibia 27.4567
rfoot -21.8395 -16.5448
rtoes -9.46158
lfemur -10.0806 11.8865 -19.1365
ltibia 35.1979
lfoot -15.0118 19.3685
ltoes 2.01953
240
root 9.7966 17.4078 -0.240929 -9.22114 -32.0882 3.03939
lowerback 6.07005 2.08906 -1.7856
upperback 2.3369 2.64151 -1.28841
thorax -1.01362 1.30959 -0.50332
lowerneck -10.148 4.88691 0.208612
upperneck -7.19037 6.37221 -0.82393
head -0.534007 3.14576 -0.129713
rclavicle -6.2378e-014 3.37934e-015
rhumerus -24.0997 25.122 -78.316
rradius 119.471
rwrist -11.1005
rhand -27.1362 30.1269
rfingers 7.12502
rthumb -0.551672 0.147845
lclavicle -6.2378e-014 3.37934e-015
lhumerus -37.2333 -12.9965 87.2517
lradius 113.117
lwrist 23.4634
lhand -29.3579 4.80324
lfingers 7.12502
lthumb -2.69734 34.7659
rfemur 4.71026 -3.44051 16.9234
rtibia 28.0138
rfoot -22.1576 -16.1563
rtoes -10.453
lfemur -9.86655 12.1012 -19.6122
ltibia 35.375
lfoot -14.8313 19.7538
ltoes -0.588457
241
root 9.80019 17.3995 -0.252823 -9.54143 -32.6257 3.08398
lowerback 6.1579 1.85285 -1.54134
upperback 2.48348 2.34472 -1.0301
thorax -0.911494 1.16035 -0.354049
lowerneck -10.2429 5.33493 0.934948
upperneck -6.86716 6.86898 -1.79599
head -0.356148 3.37258 -0.515
rclavicle 4.4697e-014 -2.00773e-014
rhumerus -25.2122 24.9868 -78.6821
rradius 119.917
rwrist -11.1242
rhand -27.2579 30.5681
rfingers 7.12502
rthumb -0.66914 0.589431
lclavicle 4.4697e-014 -2.00773e-014
lhumerus -36.8939 -12.5951 87.4488
lradius 113.237
lwrist 23.4585
lhand -28.9305 4.88999
lfingers 7.12502
lthumb -2.28461 34.8575
rfemur 4.63641 -3.24827 16.9067
rtibia 28.6193
rfoot -22.4065 -16.0288
rtoes -11.1091
lfemur -9.63201 12.376 -19.4646
ltibia 35.5831
lfoot -15.1054 19.8962
ltoes 0.248903
242
root 9.80196 17.38 -0.26231 -9.66246 -33.2291 2.85574
lowerback 6.15185 1.63236 -1.04637
upperback 2.57541 2.08598 -0.675244
thorax -0.808145 1.03175 -0.24691
lowerneck -10.4109 5.60704 1.12571
upperneck -6.3305 7.20377 -2.35084
head -0.128747 3.53024 -0.689586
rclavicle 4.5079e-014 -2.63638e-014
rhumerus -26.608 24.8793 -78.9999
rradius 120.601
rwrist -11.4185
rhand -27.2674 30.7222
rfingers 7.12502
rthumb -0.67834 0.743529
lclavicle 4.5079e-014 -2.63638e-014
lhumerus -36.6731 -12.1161 87.7579
lradius 113.316
lwrist 23.3014
lhand -28.9395 5.02164
lfingers 7.12502
lthumb -2.29325 34.9891
rfemur 4.52245 -2.94991 17.1958
rtibia 29.2152
rfoot -22.6703 -15.8343
rtoes -10.4905
lfemur -9.4339 12.8552 -19.0564
ltibia 35.846
lfoot -15.1602 19.9425
ltoes -0.284938
243
root 9.80467 17.3573 -0.272055 -9.94906 -33.7332 3.03041
lowerback 6.17632 1.45115 -0.815543
upperback 2.62531 1.85939 -0.536978
thorax -0.766965 0.918888 -0.218702
lowerneck -10.406 5.86849 1.17948
upperneck -6.06043 7.54873 -2.40314
head -0.035813 3.69983 -0.698047
rclavicle -3.4236e-014 2.98177e-016
rhumerus -28.1951 24.5348 -79.5351
rradius 121.271
rwrist -11.7869
rhand -27.4055 31.227
rfingers 7.12502
rthumb -0.811711 1.24885
lclavicle -3.4236e-014 2.98177e-016
lhumerus -36.6153 -11.7214 87.9984
lradius 113.502
lwrist 22.9303
lhand -28.9812 5.01484
lfingers 7.12502
lthumb -2.33359 34.9818
rfemur 4.32073 -2.61934 17.0969
rtibia 29.814
rfoot -22.931 -15.6749
rtoes -10.3875
lfemur -9.29687 13.2924 -19.0529
ltibia 36.1203
lfoot -15.0995 19.9993
ltoes -2.67011
244
root 9.8058 17.3356 -0.287668 -10.3733 -34.1206 3.53692
lowerback 6.26666 1.35585 -0.924064
upperback 2.6628 1.7257 -0.457911
thorax -0.783833 0.850677 -0.0695393
lowerneck -10.1248 6.13698 0.647242
upperneck -6.12798 7.96949 -1.92678
head -0.140208 3.92533 -0.466047
rclavicle -3.92848e-014 3.97569e-015
rhumerus -29.6609 23.9432 -79.899
rradius 121.704
rwrist -12.1785
rhand -28.0852 32.0087
rfingers 7.12502
rthumb -1.46818 2.034
lclavicle -3.92848e-014 3.97569e-015
lhumerus -36.2925 -11.6899 88.3565
lradius 113.481
lwrist 22.8716
lhand -28.6123 4.72263
lfingers 7.12502
lthumb -1.97731 34.6932
rfemur 4.06901 -2.36593 16.6951
rtibia 30.4062
rfoot -23.0909 -15.4015
rtoes -10.1314
lfemur -9.2951 13.6438 -19.3607
ltibia 36.3862
lfoot -15.0263 20.1187
ltoes -4.00327
245
root 9.80716 17.3164 -0.295018 -10.9529 -34.533 4.12336
lowerback 6.31941 1.27457 -1.12339
upperback 2.81316 1.60689 -0.298132
thorax -0.667724 0.787656 0.215082
lowerneck -9.93554 6.32866 0.536006
upperneck -6.23281 8.22731 -2.22153
head -0.191339 4.05523 -0.537748
rclavicle -3.87863e-014 3.57812e-015
rhumerus -30.859 23.4616 -80.0675
rradius 121.971
rwrist -12.4362
rhand -28.6955 31.9203
rfingers 7.12502
rthumb -2.05761 1.95051
lclavicle -3.87863e-014 3.57812e-015
lhumerus -35.6579 -11.7725 88.6724
lradius 113.336
lwrist 23.02
lhand -28.3435 4.53606
lfingers 7.12502
lthumb -1.71765 34.5089
rfemur 3.95333 -2.11834 16.1957
rtibia 30.9883
rfoot -23.1926 -15.1199
rtoes -9.27604
lfemur -9.10945 13.9215 -19.7333
ltibia 36.5963
lfoot -15.0399 20.3212
ltoes -4.4647
246
root 9.81042 17.3092 -0.295407 -11.2075 -35.0109 4.1376
lowerback 6.21348 1.092 -0.717273
upperback 3.05775 1.38926 -0.115793
thorax -0.349892 0.678507 0.194689
lowerneck -10.0913 6.51549 1.25498
upperneck -6.17629 8.38518 -3.08897
head -0.0732615 4.11151 -0.903208
rclavicle 8.68058e-014 -1.03368e-014
rhumerus -31.8083 22.9877 -80.249
rradius 122.337
rwrist -12.5367
rhand -27.818 30.9692
rfingers 7.12502
rthumb -1.21012 0.992838
lclavicle 8.68058e-014 -1.03368e-014
lhumerus -35.179 -11.5712 88.7943
lradius 113.622
lwrist 23.0528
lhand -28.6433 4.76936
lfingers 7.12502
lthumb -2.00717 34.7397
rfemur 3.81236 -1.8735 16.2233
rtibia 31.5365
rfoot -23.2601 -14.9222
rtoes -9.12963
lfemur -8.85877 14.0499 -19.6059
ltibia 36.7479
lfoot -15.4243 20.4542
ltoes -3.7655
